<?xml version="1.0" encoding="UTF-8"?>
<!DOCTYPE svg
  PUBLIC '-//W3C//DTD SVG 1.1//EN'
  'http://www.w3.org/Graphics/SVG/1.1/DTD/svg11.dtd'>
<svg version="1.1" xmlns="http://www.w3.org/2000/svg" width="67.480mm" height="29.940mm">
    <!--Autogenerated with python-barcode 0.16.1-->
    <g id="barcode_group">
        <rect width="100%" height="100%" style="fill:white"/>
        <rect x="8.000mm" y="1.000mm" width="0.660mm" height="22.000mm" style="fill:black;"/>
        <rect x="8.990mm" y="1.000mm" width="0.330mm" height="22.000mm" style="fill:black;"/>
        <rect x="9.980mm" y="1.000mm" width="0.330mm" height="22.000mm" style="fill:black;"/>
        <rect x="11.630mm" y="1.000mm" width="0.660mm" height="22.000mm" style="fill:black;"/>
        <rect x="12.950mm" y="1.000mm" width="0.660mm" height="22.000mm" style="fill:black;"/>
        <rect x="13.940mm" y="1.000mm" width="0.660mm" height="22.000mm" style="fill:black;"/>
        <rect x="15.260mm" y="1.000mm" width="0.660mm" height="22.000mm" style="fill:black;"/>
        <rect x="16.580mm" y="1.000mm" width="0.660mm" height="22.000mm" style="fill:black;"/>
        <rect x="17.570mm" y="1.000mm" width="0.660mm" height="22.000mm" style="fill:black;"/>
        <rect x="18.890mm" y="1.000mm" width="0.330mm" height="22.000mm" style="fill:black;"/>
        <rect x="19.550mm" y="1.000mm" width="0.990mm" height="22.000mm" style="fill:black;"/>
        <rect x="20.870mm" y="1.000mm" width="0.660mm" height="22.000mm" style="fill:black;"/>
        <rect x="22.520mm" y="1.000mm" width="0.330mm" height="22.000mm" style="fill:black;"/>
        <rect x="23.840mm" y="1.000mm" width="0.990mm" height="22.000mm" style="fill:black;"/>
        <rect x="25.160mm" y="1.000mm" width="0.660mm" height="22.000mm" style="fill:black;"/>
        <rect x="26.150mm" y="1.000mm" width="0.330mm" height="22.000mm" style="fill:black;"/>
        <rect x="26.810mm" y="1.000mm" width="0.660mm" height="22.000mm" style="fill:black;"/>
        <rect x="28.460mm" y="1.000mm" width="0.330mm" height="22.000mm" style="fill:black;"/>
        <rect x="29.780mm" y="1.000mm" width="0.330mm" height="22.000mm" style="fill:black;"/>
        <rect x="31.100mm" y="1.000mm" width="0.660mm" height="22.000mm" style="fill:black;"/>
        <rect x="32.090mm" y="1.000mm" width="0.330mm" height="22.000mm" style="fill:black;"/>
        <rect x="33.410mm" y="1.000mm" width="0.990mm" height="22.000mm" style="fill:black;"/>
        <rect x="35.060mm" y="1.000mm" width="0.330mm" height="22.000mm" style="fill:black;"/>
        <rect x="36.050mm" y="1.000mm" width="0.660mm" height="22.000mm" style="fill:black;"/>
        <rect x="37.040mm" y="1.000mm" width="0.660mm" height="22.000mm" style="fill:black;"/>
        <rect x="38.690mm" y="1.000mm" width="0.330mm" height="22.000mm" style="fill:black;"/>
        <rect x="40.010mm" y="1.000mm" width="0.330mm" height="22.000mm" style="fill:black;"/>
        <rect x="40.670mm" y="1.000mm" width="0.330mm" height="22.000mm" style="fill:black;"/>
        <rect x="41.330mm" y="1.000mm" width="0.990mm" height="22.000mm" style="fill:black;"/>
        <rect x="43.310mm" y="1.000mm" width="0.660mm" height="22.000mm" style="fill:black;"/>
        <rect x="44.300mm" y="1.000mm" width="0.660mm" height="22.000mm" style="fill:black;"/>
        <rect x="45.620mm" y="1.000mm" width="0.660mm" height="22.000mm" style="fill:black;"/>
        <rect x="46.610mm" y="1.000mm" width="0.660mm" height="22.000mm" style="fill:black;"/>
        <rect x="47.930mm" y="1.000mm" width="0.660mm" height="22.000mm" style="fill:black;"/>
        <rect x="49.250mm" y="1.000mm" width="0.660mm" height="22.000mm" style="fill:black;"/>
        <rect x="50.240mm" y="1.000mm" width="0.660mm" height="22.000mm" style="fill:black;"/>
        <rect x="51.560mm" y="1.000mm" width="0.990mm" height="22.000mm" style="fill:black;"/>
        <rect x="53.210mm" y="1.000mm" width="0.330mm" height="22.000mm" style="fill:black;"/>
        <rect x="54.200mm" y="1.000mm" width="0.660mm" height="22.000mm" style="fill:black;"/>
        <rect x="55.190mm" y="1.000mm" width="0.660mm" height="22.000mm" style="fill:black;"/>
        <rect x="56.840mm" y="1.000mm" width="0.990mm" height="22.000mm" style="fill:black;"/>
        <rect x="58.160mm" y="1.000mm" width="0.330mm" height="22.000mm" style="fill:black;"/>
        <rect x="58.820mm" y="1.000mm" width="0.660mm" height="22.000mm" style="fill:black;"/>
        <text x="33.740mm" y="27.000mm" style="fill:black;font-size:11pt;text-anchor:middle;">!!MODE:IN!!</text>
    </g>
</svg>
